<svg width="32" height="32" viewBox="0 0 32 32" fill="none" xmlns="http://www.w3.org/2000/svg">
<path fill-rule="evenodd" clip-rule="evenodd" d="M16 30.6667C7.89986 30.6667 1.33337 24.1002 1.33337 16C1.33337 7.89983 7.89986 1.33334 16 1.33334C24.1002 1.33334 30.6667 7.89983 30.6667 16C30.6667 24.1002 24.1002 30.6667 16 30.6667ZM25.3759 23.4903C27.0181 21.4374 28 18.8334 28 16C28 9.37259 22.6275 4.00001 16 4.00001C13.1667 4.00001 10.5627 4.98197 8.50979 6.62414L25.3759 23.4903ZM23.4903 25.3759C21.4374 27.018 18.8334 28 16 28C9.37262 28 4.00004 22.6274 4.00004 16C4.00004 13.1667 4.982 10.5627 6.62417 8.50976L23.4903 25.3759Z" fill="black"/>
</svg>
