<svg width="16" height="17" viewBox="0 0 16 17" fill="none" xmlns="http://www.w3.org/2000/svg">
<path fill-rule="evenodd" clip-rule="evenodd" d="M3.99992 4.50001H5.33325V3.83334H10.6666V4.50001H11.9999V3.83334H13.3333V5.83334H2.66659V3.83334H3.99992V4.50001ZM2.66659 7.16668V13.8333H13.3333V7.16668H2.66659ZM5.33325 2.50001H10.6666V1.83334H11.9999V2.50001H13.3333C14.0696 2.50001 14.6666 3.09696 14.6666 3.83334V13.8333C14.6666 14.5697 14.0696 15.1667 13.3333 15.1667H2.66659C1.93021 15.1667 1.33325 14.5697 1.33325 13.8333V3.83334C1.33325 3.09696 1.93021 2.50001 2.66659 2.50001H3.99992V1.83334H5.33325V2.50001Z" fill="currentColor"/>
</svg>
