<svg width="18" height="19" viewBox="0 0 18 19" fill="none" xmlns="http://www.w3.org/2000/svg">
<path fill-rule="evenodd" clip-rule="evenodd" d="M0.75 9.5C0.75 14.0563 4.44365 17.75 9 17.75C13.5563 17.75 17.25 14.0563 17.25 9.5C17.25 4.94365 13.5563 1.25 9 1.25C4.44365 1.25 0.75 4.94365 0.75 9.5ZM15.75 9.5C15.75 13.2279 12.7279 16.25 9 16.25C5.27208 16.25 2.25 13.2279 2.25 9.5C2.25 5.77208 5.27208 2.75 9 2.75C12.7279 2.75 15.75 5.77208 15.75 9.5ZM9.02406 14.75C6.50594 14.75 5.10482 13.4237 5.10482 11V10.25H12.8368L12.8576 10.9787C12.9268 13.4108 11.5503 14.75 9.02406 14.75ZM11.3157 11.75C11.1395 12.7966 10.4317 13.25 9.02406 13.25C7.6172 13.25 6.88634 12.7927 6.67257 11.75H11.3157ZM10.5 6.5H12.75V8H10.5V6.5ZM7.5 6.5H5.25V8H7.5V6.5Z" fill="white"/>
</svg>
