<svg width="32" height="32" viewBox="0 0 32 32" fill="none" xmlns="http://www.w3.org/2000/svg">
<path fill-rule="evenodd" clip-rule="evenodd" d="M22 2C23.0576 2 23.9739 2.41899 24.7089 3.15983L28.8434 7.29436C29.5848 8.03572 30 8.94548 30 10C30 11.0477 29.588 12.1346 28.8434 12.8792L13.7804 27.935C12.7332 29.143 11.2488 29.8852 9.5128 30.0031H4H2V28.0031L2.0065 22.3294C2.13396 20.7516 2.86746 19.2846 3.96393 18.3198L19.1219 3.16202C19.8657 2.41436 20.9508 2 22 2ZM6.70314 21.2322C6.29203 21.5958 6.0377 22.1044 6 22.4904V26.005L9.37157 26.0081C9.90738 25.9702 10.4061 25.7208 10.855 25.2108L19.6187 16.4471L15.555 12.3834L6.70314 21.2322ZM18.3839 9.55552L22.4471 13.6187L25.979 10.0868L21.9165 6.02425L18.3839 9.55552Z" fill="black"/>
</svg>
