<svg width="18" height="19" viewBox="0 0 18 19" fill="none" xmlns="http://www.w3.org/2000/svg">
<path fill-rule="evenodd" clip-rule="evenodd" d="M11.5879 1.552C12.3845 1.32441 13.2147 1.78565 13.4423 2.5822C13.4806 2.71621 13.5 2.85491 13.5 2.99428V4.24999H15C15.8284 4.24999 16.5 4.92156 16.5 5.74999V14.75C16.5 15.5784 15.8284 16.25 15 16.25H3C2.17157 16.25 1.5 15.5784 1.5 14.75H1.52003C1.50671 14.6693 1.5 14.5876 1.5 14.5057V5.56571C1.5 4.89599 1.94397 4.30741 2.58792 4.12343L11.5879 1.552ZM7.60504 14.75H15V8.74999H13.5V11.9343C13.5 12.604 13.056 13.1926 12.4121 13.3765L7.60504 14.75ZM13.5 5.74999H15V7.24999H13.5V5.74999ZM3 5.56569V14.5057L12 11.9342V2.99426L3 5.56569ZM10.5 7.24999C10.5 7.6642 10.1642 7.99999 9.75 7.99999C9.33579 7.99999 9 7.6642 9 7.24999C9 6.83577 9.33579 6.49999 9.75 6.49999C10.1642 6.49999 10.5 6.83577 10.5 7.24999Z" fill="white"/>
</svg>
