<svg width="18" height="19" viewBox="0 0 18 19" fill="none" xmlns="http://www.w3.org/2000/svg">
<path fill-rule="evenodd" clip-rule="evenodd" d="M6 7.25C6 4.35051 8.3505 2 11.25 2C14.1495 2 16.5 4.35051 16.5 7.25C16.5 10.1495 14.1495 12.5 11.25 12.5H9.75V14H8.25V15.5H6.75V17H1.5V12.9393L6.111 8.32834C6.03746 7.97635 6 7.61548 6 7.25ZM8.25 12.5V11H11.25C13.3211 11 15 9.32107 15 7.25C15 5.17893 13.3211 3.5 11.25 3.5C9.17893 3.5 7.5 5.17893 7.5 7.25C7.5 7.62397 7.55452 7.98979 7.66056 8.33965L7.79092 8.76974L3 13.5607V15.5H5.25V14H6.75V12.5H8.25ZM9.75 7.25C9.75 8.07843 10.4216 8.75 11.25 8.75C12.0784 8.75 12.75 8.07843 12.75 7.25C12.75 6.42157 12.0784 5.75 11.25 5.75C10.4216 5.75 9.75 6.42157 9.75 7.25Z" fill="white"/>
</svg>
