<svg width="18" height="19" viewBox="0 0 18 19" fill="none" xmlns="http://www.w3.org/2000/svg">
<path fill-rule="evenodd" clip-rule="evenodd" d="M9 17.75C4.44365 17.75 0.75 14.0563 0.75 9.5C0.75 4.94365 4.44365 1.25 9 1.25C13.5563 1.25 17.25 4.94365 17.25 9.5C17.25 14.0563 13.5563 17.75 9 17.75ZM14.5496 13.3435C15.3065 12.2527 15.75 10.9282 15.75 9.5C15.75 5.77208 12.7279 2.75 9 2.75C5.27208 2.75 2.25 5.77208 2.25 9.5C2.25 10.9282 2.69354 12.2527 3.45038 13.3435C4.29447 12.2286 6.27795 11.75 9 11.75C11.722 11.75 13.7055 12.2286 14.5496 13.3435ZM13.4735 14.5548C13.254 13.7655 11.677 13.25 9 13.25C6.32297 13.25 4.746 13.7655 4.52649 14.5548C5.71747 15.6096 7.28395 16.25 9 16.25C10.716 16.25 12.2825 15.6096 13.4735 14.5548ZM9 5C7.18432 5 6 6.31682 6 8C6 10.5705 7.32065 11.75 9 11.75C10.6636 11.75 12 10.6097 12 8.15C12 6.44118 10.8106 5 9 5ZM7.5 8C7.5 9.70194 8.11366 10.25 9 10.25C9.88328 10.25 10.5 9.72379 10.5 8.15C10.5 7.21281 9.91174 6.5 9 6.5C8.0503 6.5 7.5 7.11187 7.5 8Z" fill="white"/>
</svg>
