<svg width="18" height="19" viewBox="0 0 18 19" fill="none" xmlns="http://www.w3.org/2000/svg">
<path fill-rule="evenodd" clip-rule="evenodd" d="M1.5 5C1.5 5.82843 2.17157 6.5 3 6.5C3.82843 6.5 4.5 5.82843 4.5 5C4.5 4.17157 3.82843 3.5 3 3.5C2.17157 3.5 1.5 4.17157 1.5 5ZM6 4.25H16.5V5.75H6V4.25ZM16.5 8.75H6V10.25H16.5V8.75ZM6 14.75H16.5V13.25H6V14.75ZM1.5 14C1.5 14.8284 2.17157 15.5 3 15.5C3.82843 15.5 4.5 14.8284 4.5 14C4.5 13.1716 3.82843 12.5 3 12.5C2.17157 12.5 1.5 13.1716 1.5 14ZM3 11C2.17157 11 1.5 10.3284 1.5 9.5C1.5 8.67157 2.17157 8 3 8C3.82843 8 4.5 8.67157 4.5 9.5C4.5 10.3284 3.82843 11 3 11Z" fill="white"/>
</svg>
