<svg width="17" height="16" viewBox="0 0 17 16" fill="none" xmlns="http://www.w3.org/2000/svg">
<path fill-rule="evenodd" clip-rule="evenodd" d="M12.9374 13.9314L14.4155 12.4533L13.8949 10.562L14.1217 10.0203L15.8333 9.05457V6.96432L14.1266 5.99451L13.9036 5.4538L14.4307 3.56159L12.9516 2.08457L11.0601 2.60501L10.5197 2.3784L9.55384 0.666687H7.46358L6.49377 2.37338L5.95319 2.59633L4.06128 2.06856L2.58443 3.54541L3.10495 5.43714L2.87834 5.97758L1.16663 6.94345V9.0331L2.87178 10.0051L3.09497 10.5462L2.56794 12.4381L4.04535 13.9156L5.93708 13.395L6.47758 13.6217L7.44347 15.3327H9.53319L10.5044 13.6275L11.0455 13.4043L12.9374 13.9314ZM13.0684 9.08376L12.4872 10.4719L12.9241 12.0591L12.5452 12.438L10.9613 11.9968L9.5726 12.5695L8.75818 13.9993H8.2219L7.41423 12.5686L6.02766 11.9872L4.4396 12.4242L4.06131 12.0459L4.50253 10.462L3.92984 9.07345L2.49996 8.25839V7.72205L3.93136 6.91435L4.51276 5.52772L4.07579 3.93966L4.4533 3.56216L6.03713 4.00399L7.42632 3.43105L8.2395 2.00002H8.77524L9.58293 3.43142L10.9696 4.01282L12.5579 3.57577L12.9372 3.95446L12.496 5.53799L13.0689 6.92706L14.5 7.74023V8.27597L13.0684 9.08376ZM8.49996 10.6667C7.0272 10.6667 5.83329 9.47278 5.83329 8.00002C5.83329 6.52726 7.0272 5.33335 8.49996 5.33335C9.97272 5.33335 11.1666 6.52726 11.1666 8.00002C11.1666 9.47278 9.97272 10.6667 8.49996 10.6667ZM9.83329 8.00002C9.83329 8.7364 9.23634 9.33335 8.49996 9.33335C7.76358 9.33335 7.16663 8.7364 7.16663 8.00002C7.16663 7.26364 7.76358 6.66669 8.49996 6.66669C9.23634 6.66669 9.83329 7.26364 9.83329 8.00002Z" fill="white"/>
</svg>
