<svg width="32" height="32" viewBox="0 0 32 32" fill="none" xmlns="http://www.w3.org/2000/svg">
<path fill-rule="evenodd" clip-rule="evenodd" d="M12 1.33334H20C21.4727 1.33334 22.6666 2.52725 22.6666 4.00001V5.33334H26.6666C28.1394 5.33334 29.3333 6.52725 29.3333 8.00001V10.6667C29.3333 12.1394 28.1394 13.3333 26.6666 13.3333H26.5598L25.3333 28C25.3333 29.4728 24.1394 30.6667 22.6666 30.6667H9.33329C7.86053 30.6667 6.66663 29.4728 6.67123 28.1107L5.43978 13.3333H5.33329C3.86053 13.3333 2.66663 12.1394 2.66663 10.6667V8.00001C2.66663 6.52725 3.86053 5.33334 5.33329 5.33334H9.33329V4.00001C9.33329 2.52725 10.5272 1.33334 12 1.33334ZM5.33329 8.00001L9.33329 8.00001H22.6666L26.6666 8.00001V10.6667H5.33329V8.00001ZM8.11528 13.3333H23.8842L22.6712 27.8893L22.6666 28H9.33329L8.11528 13.3333ZM20 4.00001V5.33334H12V4.00001H20Z" fill="black"/>
</svg>
